# xmcd
#
# Track frame offsets: 
#        150
#        23303
#        49833
#        76220
#        99543
#        121988
#        154985
#        201853
#        222440
#
# Disc length: 3213 seconds
#
# Revision: 0
# Processed by: cddbd v1.5.2PL0 Copyright (c) Steve Scherf et al.
# Submitted via: ExactAudioCopy v0.99pb5
#
DISCID=700c8b09
DTITLE=Eric Clapton  - August Outtakes and Different Mixes vol 1
DYEAR=1900
DGENRE=
TTITLE0=Lady from Verona
TTITLE1=Hold on
TTITLE2=Take a chance
TTITLE3=Bad influence
TTITLE4=Hung up on your love
TTITLE5=Wanna make love to you
TTITLE6=Behind the mask
TTITLE7=Holy Mother
TTITLE8=Walk away
EXTD=
EXTT0=
EXTT1=
EXTT2=
EXTT3=
EXTT4=
EXTT5=
EXTT6=
EXTT7=
EXTT8=
PLAYORDER=
